# xmcd
#
# Track frame offsets: 
#        150
#        11633
#        21886
#        33458
#        44157
#        54965
#        66669
#        78239
#        91483
#        102764
#        112539
#        123715
#        134774
#        147106
#        158317
#        167286
#        178836
#        191133
#        201737
#        214537
#        227534
#        238337
#        249991
#        260443
#        273605
#        282549
#        293650
#        303709
#        315370
#
# Disc length: 4331 seconds
#
# Revision: 0
# Processed by: cddbd v1.5.2PL0 Copyright (c) Steve Scherf et al.
# Submitted via: ExactAudioCopy v0.99pb4
#
DISCID=ab10e91d
DTITLE=Various Artist - Serious Soul Vol 8 Big Boys Don't Cry
DYEAR=1975
DGENRE=Soul
TTITLE0=George Freeman - Down and Out
TTITLE1=Paris - Sleepless Night
TTITLE2=Jimmy Wallace - I'll Be Back
TTITLE3=Johnny Maestro - Stepping Out Of My Pictures
TTITLE4=Johnny Darrow - Love Is A Nightmare
TTITLE5=Little Charles - It's A Heartache
TTITLE6=Jack Montgomery - Don't Turn You Back On Me
TTITLE7=Big Dee Irwin - You Satisfy My Needs
TTITLE8=Mickey Laney - I'm Gonna Walk
TTITLE9=Jimmy Helmes - You're Mind On Your Own
TTITLE10=Leon Peterson - Now Your On Your Man
TTITLE11=Johnny Nash - Some Of Your Lovin'
TTITLE12=Kurt Harris - Emperor Of My Baby's Heart
TTITLE13=Joey Gee - It's More Than I Decerve
TTITLE14=Clarence Hill - Lot Of Lovin' Going Round
TTITLE15=Freddie Houston - Love Love Love
TTITLE16=Roy Hamitlton - The Panic Is On
TTITLE17=Sonny Fulton - Pardon Me Baby
TTITLE18=Dean Parrish - Bricks Broken Bottles and Sticks
TTITLE19=Harry Star - Another time Another Place
TTITLE20=Brooks O' Denn - Standing Tall
TTITLE21=Brooks O' Denn - The Living Ones
TTITLE22=Lovelace AWatkins - Dreams
TTITLE23=Kenny Sheppard - What Difference Does It Make
TTITLE24=Nate Nelson - Once Again
TTITLE25=Jimmy Love - Chills And Fever
TTITLE26=James Moor - A Man Should Never Cry
TTITLE27=John Tee - Crazy
TTITLE28=Terry Sinclair - What Have You Heard
EXTD=
EXTT0=
EXTT1=
EXTT2=
EXTT3=
EXTT4=
EXTT5=
EXTT6=
EXTT7=
EXTT8=
EXTT9=
EXTT10=
EXTT11=
EXTT12=
EXTT13=
EXTT14=
EXTT15=
EXTT16=
EXTT17=
EXTT18=
EXTT19=
EXTT20=
EXTT21=
EXTT22=
EXTT23=
EXTT24=
EXTT25=
EXTT26=
EXTT27=
EXTT28=
PLAYORDER=
